<svg width="1560" height="765" viewBox="0 0 1560 765" fill="none" xmlns="http://www.w3.org/2000/svg">
<path d="M833.5 293C846 268 867 293 867 293V404C867 404 854.5 422.5 839.5 404C824.5 385.5 821 318 833.5 293Z" fill="#D9D9D9" fill-opacity="0.62" stroke="black"/>
<path d="M725 295.5C713.5 268 695 295.5 695 295.5V412C695 412 702 425.5 718 412C734 398.5 736.5 323 725 295.5Z" fill="#E1E1E1" fill-opacity="0.67" stroke="black"/>
<path d="M354.375 719.625C535.636 719.625 668.625 576.512 668.625 381.875C668.625 187.237 535.635 44.375 354.375 44.375C173.11 44.375 42.375 187.244 42.375 381.875C42.375 576.506 173.109 719.625 354.375 719.625ZM354.375 0.625038C466.969 0.625043 554.768 53.9525 614.435 128.282C674.111 202.624 705.625 297.955 705.625 381.875C705.625 465.804 675.98 561.559 617.243 636.186C558.518 710.798 470.724 764.284 354.378 763.75C238.035 763.216 149.611 708.015 90.2565 632.806C30.8907 557.581 0.625017 462.36 0.625 381.875C0.624983 301.398 32.7601 206.066 93.066 130.86C153.362 55.6652 241.788 0.625033 354.375 0.625038ZM1208.12 719.625C1389.39 719.625 1520.62 576.507 1520.62 381.875C1520.62 187.242 1389.39 44.375 1208.12 44.375C1026.86 44.375 894.375 187.239 894.375 381.875C894.375 576.511 1026.86 719.625 1208.12 719.625ZM1208.12 0.625C1433.29 0.62501 1559.37 200.848 1559.37 381.875C1559.37 562.878 1433.31 755.641 1208.1 763.75C1095.53 767.804 1007.11 712.618 946.818 636.253C886.512 559.875 854.375 462.354 854.375 381.875C854.375 301.398 886.51 206.066 946.816 130.859C1007.11 55.6652 1095.54 0.624995 1208.12 0.625Z" fill="#478E63" stroke="black" stroke-width="1.25"/>
<path d="M903.5 197.5C903.5 197.5 770.5 114.5 658.5 197.5L675.5 232.5C780 142 886 232.5 886 232.5L903.5 197.5Z" fill="#478E63" stroke="black"/>
</svg>
